<svg xmlns="http://www.w3.org/2000/svg" xmlns:xlink="http://www.w3.org/1999/xlink" id="Layer_1" width="14" height="14" x="0" y="0" fill="#828282" enable-background="new 0 0 16 16" version="1.1" viewBox="0 0 48 48" xml:space="preserve"><path d="M 39.00,9.00L15.513,9.00 L0.00,24.126L 15.513,39.00L39.00,39.00 c 4.962,0.00, 9.00-4.038, 9.00-9.00L48.00,18.00 C 48.00,13.038, 43.962,9.00, 39.00,9.00z M 42.00,30.00c0.00,1.659-1.341,3.00-3.00,3.00L18.00,33.00 L 8.487,24.126L 18.00,15.00l21.00,0.00 c 1.659,0.00, 3.00,1.341, 3.00,3.00L42.00,30.00 zM 15.00,24.00A3.00,3.00 0.00 1,0 21.00,24.00A3.00,3.00 0.00 1,0 15.00,24.00z"/></svg>